<svg xmlns="http://www.w3.org/2000/svg" viewBox="0 0 48 48" role="img" aria-label="System error">
  <rect x="3" y="7" width="28" height="10" rx="3" fill="#4b5563"/>
  <rect x="3" y="19" width="28" height="10" rx="3" fill="#6b7280"/>
  <rect x="3" y="31" width="22" height="10" rx="3" fill="#4b5563"/>
  <rect x="8" y="11" width="10" height="2.5" rx="1.25" fill="#111827" opacity=".65"/>
  <rect x="8" y="23" width="10" height="2.5" rx="1.25" fill="#111827" opacity=".65"/>
  <rect x="8" y="35" width="8" height="2.5" rx="1.25" fill="#111827" opacity=".65"/>
  <circle cx="24.5" cy="12" r="1.8" fill="#fca5a5"/>
  <circle cx="24.5" cy="24" r="1.8" fill="#fca5a5"/>
  <circle cx="18.5" cy="36" r="1.8" fill="#fca5a5"/>
  <path d="M33.1 40.6 39.9 28a2.2 2.2 0 0 1 3.9 0l6.8 12.6a2.2 2.2 0 0 1-1.9 3.2H35a2.2 2.2 0 0 1-1.9-3.2Z" fill="#ef4444"/>
  <rect x="41" y="32.4" width="2.2" height="6.6" rx="1.1" fill="#fff"/>
  <circle cx="42.1" cy="41.3" r="1.2" fill="#fff"/>
</svg>
